<?xml version="1.0" encoding="UTF-8"?>
<svg id="Layer_2" xmlns="http://www.w3.org/2000/svg" version="1.1" viewBox="0 0 527.2 144.71">
  <!-- Generator: Adobe Illustrator 29.1.0, SVG Export Plug-In . SVG Version: 2.1.0 Build 142)  -->
  <g id="Layer_1-2">
    <g>
      <path d="M15.41,52.06c-.9-.85-1.7-1.86-2.72-2.51-2.77-1.76-4.83-1.35-7.6,1.26-1.69,1.59-2.11,4.38-.86,6.71.55,1.02,1.35,1.92,2.09,2.83,1.81,2.24,3.62,4.47,5.48,6.67,3.99,4.72,7.99,9.43,12.01,14.13,2.22,2.59,4.44,5.18,6.74,7.7,4.07,4.45,8.19,8.86,12.32,13.26,5.19,5.52,11.71,9.21,18.13,13.05,10.31,6.16,21.07,11.45,32.06,16.24,7.65,3.33,22.75,9.16,31.08,9.81,9.24.73,395.93.47,397.05-.11" fill="none" stroke="#000" stroke-linecap="round" stroke-linejoin="round" stroke-width="7"/>
      <path d="M152.6,109.04c-3.45-5.53-6.41-11.29-7.17-17.86-.3-2.56-.09-5.22.17-7.81.62-6.19,1.41-12.36,2.13-18.53.51-4.34.99-8.69,1.51-13.03.31-2.58.21-5.1-.97-7.48-1.53-3.07-4.1-4.29-7.42-4.26-1.4,0-2.81-.15-4.19-.03-1.05.09-1.68.67-1.95,1.93-1.28,6.06-2.53,12.13-4.19,18.09-1.06,3.8-2.8,7.38-4.89,10.81-1.73,2.84-4,4.1-7.16,3.9-4.83-.3-9.51-1.36-13.99-3.2-2.11-.87-4.18-1.89-6.18-3-1.77-.98-2.55-2.69-2.61-4.66-.14-4.83.86-9.5,2.29-14.08.52-1.67,1.15-3.3,1.72-4.94.75-2.14,2.28-3.2,4.53-3.31,4.03-.19,8.07-.46,12.1-.61,5.05-.19,10.1-.34,15.15-.43,1.08-.02,2.17.26,3.25.41" fill="none" stroke="#000" stroke-linecap="round" stroke-linejoin="round" stroke-width="7"/>
      <path d="M63.7,48.4c-3.98-11.9-7.95-23.8-11.94-35.7-1.89-5.63-8.02-9.55-12.85-9.18-3.88.3-7.31,4.38-5.99,8.49,3.79,11.8,7.27,23.71,10.88,35.57,4.46,14.67,8.91,29.35,13.43,44.01.31,1-.28,1.21-.76,1.64" fill="none" stroke="#000" stroke-linecap="round" stroke-linejoin="round" stroke-width="7"/>
      <path d="M136.12,39.62c.12-.86.25-1.72.37-2.58.56-4.13-.75-5.72-4.16-7.34-3.54-1.68-7.37-2.45-11.18-2.97-8.64-1.17-17.32-1.55-26.05-.84-4.66.38-7.76,2.81-10.18,6.53-6.82,10.47-11.76,21.76-14.76,33.88-.77,3.09-1.81,6.35-.44,9.46,1.03,2.33,2.68,4.39,4.06,6.57" fill="none" stroke="#000" stroke-linecap="round" stroke-linejoin="round" stroke-width="7"/>
      <path d="M27.54,28.04c-1.65-2.2-3.83-3.7-6.35-4.7-2.03-.81-4.87-.06-6.17,1.54-1.54,1.9-1.8,4.52-.64,6.52,2.85,4.9,5.74,9.78,8.54,14.7,6.32,11.09,12.59,22.21,18.88,33.31,1.57,2.78,3.13,5.57,4.69,8.35" fill="none" stroke="#000" stroke-linecap="round" stroke-linejoin="round" stroke-width="7"/>
    </g>
    <g isolation="isolate">
      <g isolation="isolate">
        <path d="M217.67,114.4l-32.52-84h10.56l20.88,54.72c.96,2.48,1.8,4.68,2.52,6.6.72,1.92,1.38,3.74,1.98,5.46.6,1.72,1.18,3.42,1.74,5.1.56,1.68,1.16,3.52,1.8,5.52l-3.12.12c.8-2.72,1.58-5.24,2.34-7.56.76-2.32,1.56-4.7,2.4-7.14.84-2.44,1.9-5.3,3.18-8.58l20.76-54.24h10.56l-33.48,84h-9.6Z"/>
      </g>
      <g isolation="isolate">
        <path d="M305.74,115.6c-6.16,0-11.88-1.08-17.16-3.24s-9.92-5.16-13.92-9c-4-3.84-7.1-8.38-9.3-13.62-2.2-5.24-3.3-10.94-3.3-17.1s1.1-11.86,3.3-17.1c2.2-5.24,5.24-9.78,9.12-13.62,3.88-3.84,8.44-6.82,13.68-8.94,5.24-2.12,10.86-3.18,16.86-3.18,4.24,0,8.42.6,12.54,1.8,4.12,1.2,7.86,2.88,11.22,5.04,3.36,2.16,6.08,4.6,8.16,7.32l-6.24,6.36c-2.24-2.32-4.76-4.32-7.56-6-2.8-1.68-5.74-3-8.82-3.96-3.08-.96-6.14-1.44-9.18-1.44-4.72,0-9.1.84-13.14,2.52-4.04,1.68-7.58,4.02-10.62,7.02-3.04,3-5.4,6.56-7.08,10.68-1.68,4.12-2.52,8.62-2.52,13.5s.86,9.14,2.58,13.26c1.72,4.12,4.16,7.72,7.32,10.8,3.16,3.08,6.82,5.46,10.98,7.14,4.16,1.68,8.64,2.52,13.44,2.52,3.76,0,7.3-.56,10.62-1.68,3.32-1.12,6.22-2.7,8.7-4.74,2.48-2.04,4.4-4.42,5.76-7.14,1.36-2.72,2.04-5.64,2.04-8.76v-4.2l1.92,2.4h-29.52v-9.24h36.96c.08.64.16,1.38.24,2.22.08.84.14,1.68.18,2.52.04.84.06,1.62.06,2.34,0,5.2-.96,9.98-2.88,14.34-1.92,4.36-4.58,8.12-7.98,11.28-3.4,3.16-7.34,5.6-11.82,7.32-4.48,1.72-9.36,2.58-14.64,2.58Z"/>
      </g>
      <g isolation="isolate">
        <path d="M370.26,114.4V39.52h-24v-9.12h58.32v9.12h-24.96v74.88h-9.36Z"/>
      </g>
      <g isolation="isolate">
        <path d="M414.02,114.4v-8.88h13.56V39.28h-13.56v-8.88h36.48v8.88h-13.56v66.24h13.56v8.88h-36.48Z"/>
      </g>
      <g isolation="isolate">
        <path d="M464.93,114.4V30.4h33.24c4.4,0,8.36,1.08,11.88,3.24,3.52,2.16,6.32,5.14,8.4,8.94,2.08,3.8,3.12,8.06,3.12,12.78,0,4.96-1.04,9.38-3.12,13.26-2.08,3.88-4.88,6.96-8.4,9.24-3.52,2.28-7.48,3.42-11.88,3.42h-23.88v33.12h-9.36ZM474.29,72.16h24.36c2.48,0,4.7-.74,6.66-2.22,1.96-1.48,3.54-3.48,4.74-6,1.2-2.52,1.8-5.42,1.8-8.7,0-2.96-.6-5.62-1.8-7.98-1.2-2.36-2.78-4.24-4.74-5.64-1.96-1.4-4.18-2.1-6.66-2.1h-24.36v32.64Z"/>
      </g>
    </g>
  </g>
</svg>